Hidalgo 2004 BluRay 1080p ac3 x264-LoNeWolf

Encoder Tequila-Bob / a.k.a. bobnjeff / a.k.a.LoNeWoLf

Source - NTSC BluRay Disc.

Movie has been tested and is DXVA Compliant
 
http://www.imdb.com/title/tt0317648/

Hidalgo (2004) 
  136 min  -  Action | Adventure | Drama   -  5 March 2004 (USA) 
  6.6/10 X  Users: 6.6/10 (24,593 votes) 325 reviews | Critics: 131 reviews Metascore: 54/100 (based on 36 reviews from Metacritic.com) 
  Set in 1890, this is the story of a Pony Express courier who travels to Arabia to compete with his horse, Hidalgo, in a dangerous race for a massive   contest prize, in an adventure that sends the pair around the world... 


Director: Joe Johnston
Writer: John Fusco
Stars:Viggo Mortensen, Omar Sharif, Zuleikha Robinson  
 

Genres:Action | Adventure | Drama 

Rated PG-13 for adventure violence and some mild innuendo

Release Date:5 March 2004 (USA)

Storyline
Held yearly for centuries, the Ocean of Fire--a 3,000 mile survival race across the Arabian desert--was a challenge restricted to the finest Arabian horses ever bred, the purest and noblest lines, owned by the greatest royal families. In 1890, a wealthy sheik invited an American, Frank T. Hopkins, and his horse to enter the race for the first time. During the course of his career, Hopkins was a cowboy and dispatch rider for the U.S. cavalry--and had once been billed as the greatest rider the West had ever known. The Sheik puts his claim to the test, pitting the American cowboy and his mustang, Hidalgo, against the world's greatest Arabian horses and Bedouin riders--some of whom are determined to prevent a foreigner from finishing the race. For Frank, the Ocean of Fire becomes not only a matter of pride and honor, but a race for his very survival as he and his horse attempt the impossible. Written by Sujit R. Varma   


Cast
Cast overview, first billed only: 
  Viggo Mortensen  ...  Frank Hopkins  
  Zuleikha Robinson  ...  Jazira  
  Omar Sharif  ...  Sheikh Riyadh  
  Louise Lombard  ...  Lady Anne Davenport  
  Adam Alexi-Malle  ...  Aziz  
  Saïd Taghmaoui  ...  Prince Bin Al Reeh  
  Silas Carson  ...  Katib  
  Harsh Nayyar  ...  Yusef  
  J.K. Simmons  ...  Buffalo Bill Cody  
  Adoni Maropis  ...  Sakr  
  Victor Talmadge  ...  Rau Rasmussen  
  Peter Mensah  ...  Jaffa  
  Joshua Wolf Coleman  ...  The Kurd  
  Franky Mwangi  ...  Slave Boy  
  Floyd 'Red Crow' Westerman  ...  Chief Eagle Horn (as Floyd Red Crow Westerman)  


[img]http://torrent-stats.info/0001/129d9.png[/img]


Format : Matroska 
File size : 9.71 GiB 
Duration : 2h 16mn 
Overall bit rate : 10.2 Mbps 
Encoded date : UTC 2011-02-03 19:15:05 
Writing application : mkvmerge v4.4.0 ('Die Wiederkehr') built on Oct 31 2010 21:52:48 
Writing library : libebml v1.0.0 + libmatroska v1.0.0 

Video 
ID : 1 
Format : AVC 
Format/Info : Advanced Video Codec 
Format profile : High@L4.1 
Format settings, CABAC : Yes 
Format settings, ReFrames : 4 frames 
Muxing mode : Container profile=Unknown@4.1 
Codec ID : V_MPEG4/ISO/AVC 
Duration : 2h 16mn 
Bit rate : 9 499 Kbps 
Width : 1 920 pixels 
Height : 800 pixels 
Display aspect ratio : 2.40:1 
Frame rate : 23.976 fps 
Color space : YUV 
Chroma subsampling : 4:2:0 
Bit depth : 8 bits 
Scan type : Progressive 
Bits/(Pixel*Frame) : 0.258 
Stream size : 8.91 GiB (92%) 
Writing library : x264 core 112 r1867 22bfd31 
Encoding settings : cabac=1 / ref=5 / deblock=1:-3:-3 / analyse=0x3:0x113 / me=umh / subme=9 / psy=1 / psy_rd=1.00:0.08 / mixed_ref=1 / me_range=32 / chroma_me=1 / trellis=2 / 8x8dct=1 / cqm=0 / deadzone=21,11 / fast_pskip=0 / chroma_qp_offset=-3 / threads=6 / sliced_threads=0 / nr=0 / decimate=1 / interlaced=0 / constrained_intra=0 / bframes=6 / b_pyramid=1 / b_adapt=1 / b_bias=0 / direct=1 / weightb=1 / open_gop=2 / weightp=2 / keyint=250 / keyint_min=23 / scenecut=40 / intra_refresh=0 / rc_lookahead=100 / rc=2pass / mbtree=1 / bitrate=9499 / ratetol=1.0 / qcomp=0.60 / qpmin=10 / qpmax=51 / qpstep=4 / cplxblur=20.0 / qblur=0.5 / vbv_maxrate=50000 / vbv_bufsize=50000 / nal_hrd=none / ip_ratio=1.40 / aq=1:1.50 
Language : English 

Audio 
ID : 2 
Format : AC-3 
Format/Info : Audio Coding 3 
Mode extension : CM (complete main) 
Codec ID : A_AC3 
Duration : 2h 16mn 
Bit rate mode : Constant 
Bit rate : 640 Kbps 
Channel(s) : 6 channels 
Channel positions : Front: L C R, Side: L R, LFE 
Sampling rate : 48.0 KHz 
Bit depth : 16 bits 
Stream size : 624 MiB (6%) 
Title : 3/2+1 
Language : English 

Text 
ID : 3 
Format : PGS 
Codec ID : S_HDMV/PGS 
Codec ID/Info : The same subtitle format used on BDs/HD-DVDs 
Language : English, French, Spanish, Portuguese, Chinese, Thai 
           Indonesian, Malayalam, Korean, French 

 
http://torrent-stats.info/0001/129d9.png


Menu & 17 Chapters




See the full size 1920x800 PNG files at the link below
 
http://s1015.photobucket.com/albums/af279/tequila-bob/Hidalgo%202004/
 
http://www.imagebam.com/image/50ca99118154555
 
http://www.imagebam.com/image/72e2ae118154564
 
http://www.imagebam.com/image/c39927118154587
 
http://www.imagebam.com/image/21125f118154623
 
http://www.imagebam.com/image/b6c116118154693
 
http://www.imagebam.com/image/de0033118154735

